<svg height="512" viewBox="0 0 64 64" width="512" xmlns="http://www.w3.org/2000/svg"><g id="led"><path d="m43 41v-17a11 11 0 0 0 -22 0v17a3.009 3.009 0 0 0 -3 3v2a3.009 3.009 0 0 0 3 3h6v9h2v-9h6v13h2v-13h6a3.009 3.009 0 0 0 3-3v-2a3.009 3.009 0 0 0 -3-3zm-20-17a9 9 0 0 1 18 0v17h-4v-8a1 1 0 0 0 -1-1h-3a1.033 1.033 0 0 0 -.71.29l-1.02 1.02-.38-.76a.977.977 0 0 0 -.89-.55h-2a1 1 0 0 0 -1 1v8h-4zm12 10v7h-6v-7h.38l.73 1.45a1 1 0 0 0 .73.54 1.032 1.032 0 0 0 .87-.28l1.7-1.71zm9 12a1 1 0 0 1 -1 1h-22a1 1 0 0 1 -1-1v-2a1 1 0 0 1 1-1h22a1 1 0 0 1 1 1z"/><path d="m32 18v-2a8.009 8.009 0 0 0 -8 8h2a6.006 6.006 0 0 1 6-6z"/><path d="m31 2h2v6h-2z"/><path d="m11.908 9.908h2v6h-2z" transform="matrix(.707 -.707 .707 .707 -5.347 12.909)"/><path d="m2 31h6v2h-6z"/><path d="m56 31h6v2h-6z"/><path d="m48.092 11.908h6v2h-6z" transform="matrix(.707 -.707 .707 .707 5.837 39.908)"/></g></svg>