<svg id="Layer_1" enable-background="new 0 0 512.001 512.001" height="512" viewBox="0 0 512.001 512.001" width="512" xmlns="http://www.w3.org/2000/svg"><g><g><path d="m480.825 26.001h-449.649c-17.191 0-31.176 13.985-31.176 31.176v317.647c0 17.191 13.985 31.177 31.176 31.177h171.909l-4.717 20h-22.37c-4.589 0-8.588 3.123-9.702 7.574l-10 40c-.747 2.987-.076 6.152 1.819 8.58 1.896 2.427 4.803 3.846 7.882 3.846h180.004c3.08 0 5.987-1.419 7.882-3.846 1.895-2.428 2.566-5.593 1.819-8.58l-10-40c-1.113-4.451-5.113-7.574-9.702-7.574h-22.369l-4.717-20h171.909c17.191 0 31.176-13.985 31.176-31.177v-317.647c.002-17.191-13.983-31.176-31.174-31.176zm-449.649 20h449.649c6.163 0 11.176 5.014 11.176 11.176v288.822h-472.001v-288.822c0-6.163 5.014-11.176 11.176-11.176zm302.018 420h-154.388l5-20h144.388zm-40.11-40h-74.167l4.717-20h64.733zm187.741-40h-449.649c-6.163 0-11.176-5.014-11.176-11.177v-8.825h472.001v8.825c0 6.163-5.013 11.177-11.176 11.177z"/><path d="m461.999 305.999h-257c-13.268.528-13.258 19.476 0 20h257c13.268-.529 13.258-19.477 0-20z"/><path d="m380.979 285.999h81.02c13.268-.528 13.258-19.476 0-20h-81.02c-13.268.528-13.258 19.476 0 20z"/><path d="m410.98 205.999h51.019c13.268-.528 13.258-19.476 0-20h-51.019c-13.268.528-13.258 19.476 0 20z"/><path d="m410.98 125.999h51.019c13.268-.528 13.258-19.476 0-20h-51.019c-13.268.528-13.258 19.476 0 20z"/><path d="m410.98 85.999h51.019c13.268-.528 13.258-19.476 0-20h-51.019c-13.268.528-13.258 19.476 0 20z"/><path d="m210.002 171.804c0-27.57-22.43-50-50-50-66.332 2.746-66.313 97.264 0 100 27.571 0 50-22.429 50-50zm-80 0c0-16.542 13.458-30 30-30 39.799 1.648 39.787 58.358 0 60-16.542 0-30-13.458-30-30z"/><path d="m98.287 271.806c-11.59-31.316-57.648-23.816-58.286 10 .641 33.821 46.702 41.311 58.286 10h12.562c2.652 0 5.196-1.054 7.071-2.929l28.15-28.15c31.558 5.265 64.547-8.215 83.479-31.859l23.241 23.241c1.875 1.875 4.419 2.929 7.071 2.929h32.562c11.59 31.316 57.648 23.815 58.286-10-.641-33.821-46.702-41.311-58.286-10h-28.42l-23.337-23.337c4.564-9.191 7.603-19.267 8.783-29.896h17.72c11.59 31.316 57.648 23.815 58.286-10-.641-33.821-46.702-41.311-58.286-10h-17.72c-1.275-11.481-4.718-22.317-9.91-32.088l23.713-23.714h48.421c11.59 31.316 57.648 23.815 58.286-10-.641-33.821-46.702-41.311-58.286-10h-52.563c-2.652 0-5.196 1.054-7.071 2.929l-24.01 24.01c-29.607-35.593-86.666-41.644-123.101-12.274 1.308-18.629-13.745-34.739-32.428-34.665-17.92 0-32.5 14.579-32.5 32.5-.287 20.77 20.232 36.767 40.281 31.558-24.79 45.538-2.722 104.932 43.874 124.296l-17.45 17.45h-8.418zm-28.286 20c-5.514 0-10-4.486-10-10 .549-13.266 19.453-13.262 20 0 0 5.514-4.486 10-10 10zm250.709-56.768c5.514 0 10 4.486 10 10-.549 13.266-19.452 13.263-20 0 0-5.514 4.486-10 10-10zm19.251-149.036c5.514 0 10 4.486 10 10-.549 13.266-19.452 13.263-20 0 0-5.514 4.486-10 10-10zm-44.505 75.802c5.514 0 10 4.486 10 10-.549 13.266-19.452 13.263-20 0 0-5.513 4.486-10 10-10zm-235.455-63.302c0-6.893 5.607-12.5 12.5-12.5 16.583.687 16.578 24.316 0 25-6.892 0-12.5-5.608-12.5-12.5zm30.001 73.302c0-38.598 31.402-70 70-70 92.864 3.845 92.837 136.169-.001 140-38.597 0-69.999-31.402-69.999-70z"/><path d="m160.002 305.999h-.007c-5.523 0-9.996 4.478-9.996 10 .528 13.263 19.478 13.263 20.003 0 0-5.523-4.477-10-10-10z"/><path d="m355.464 161.804h-.007c-5.523 0-9.997 4.478-9.997 10 .529 13.263 19.479 13.263 20.004 0 0-5.522-4.477-10-10-10z"/></g></g></svg>